<mxfile host="app.diagrams.net" agent="Mozilla/5.0 (Windows NT 10.0; Win64; x64) AppleWebKit/537.36 (KHTML, like Gecko) Chrome/128.0.0.0 Safari/537.36" version="24.7.16">
  <diagram name="Page-1" id="e7e014a7-5840-1c2e-5031-d8a46d1fe8dd">
    <mxGraphModel dx="808" dy="402" grid="1" gridSize="10" guides="1" tooltips="1" connect="1" arrows="1" fold="1" page="1" pageScale="1" pageWidth="1169" pageHeight="826" background="none" math="0" shadow="0">
      <root>
        <mxCell id="0" />
        <mxCell id="1" parent="0" />
        <mxCell id="xg2LhlMbRckfmOBxGWyi-41" value="" style="strokeWidth=2;html=1;shape=mxgraph.flowchart.start_2;whiteSpace=wrap;" vertex="1" parent="1">
          <mxGeometry x="540" y="10" width="40" height="40" as="geometry" />
        </mxCell>
        <mxCell id="xg2LhlMbRckfmOBxGWyi-42" value="E1&lt;br&gt;Sensado de factores externos" style="ellipse;shape=umlEntity;whiteSpace=wrap;html=1;" vertex="1" parent="1">
          <mxGeometry x="455" y="150" width="210" height="210" as="geometry" />
        </mxCell>
        <mxCell id="xg2LhlMbRckfmOBxGWyi-43" value="" style="html=1;verticalAlign=bottom;startArrow=oval;startFill=1;endArrow=block;startSize=8;curved=0;rounded=0;exitX=0.5;exitY=1;exitDx=0;exitDy=0;exitPerimeter=0;" edge="1" parent="1">
          <mxGeometry width="60" relative="1" as="geometry">
            <mxPoint x="559.7" y="50" as="sourcePoint" />
            <mxPoint x="559.7" y="150" as="targetPoint" />
          </mxGeometry>
        </mxCell>
        <mxCell id="xg2LhlMbRckfmOBxGWyi-45" value="Apertura&lt;br&gt;AutomÃ¡tica" style="ellipse;shape=umlEntity;whiteSpace=wrap;html=1;" vertex="1" parent="1">
          <mxGeometry x="850" y="150" width="80" height="80" as="geometry" />
        </mxCell>
        <mxCell id="xg2LhlMbRckfmOBxGWyi-46" value="Apertura Manual" style="ellipse;shape=umlEntity;whiteSpace=wrap;html=1;" vertex="1" parent="1">
          <mxGeometry x="860" y="280" width="80" height="80" as="geometry" />
        </mxCell>
      </root>
    </mxGraphModel>
  </diagram>
</mxfile>
